<mxfile host="app.diagrams.net" modified="2024-06-21T14:36:50.201Z" agent="Mozilla/5.0 (Windows NT 10.0; Win64; x64) AppleWebKit/537.36 (KHTML, like Gecko) Chrome/126.0.0.0 Safari/537.36" etag="bq3LY9YUMReDoq4dlStl" version="24.6.1" type="github">
  <diagram name="第 1 页" id="UYaLZpcmspT8GqhVY-hp">
    <mxGraphModel dx="1434" dy="738" grid="1" gridSize="10" guides="1" tooltips="1" connect="1" arrows="1" fold="1" page="1" pageScale="1" pageWidth="827" pageHeight="1169" math="0" shadow="0">
      <root>
        <mxCell id="0" />
        <mxCell id="1" parent="0" />
        <mxCell id="jbCId9T1_YpEdxwAonTa-4" style="edgeStyle=orthogonalEdgeStyle;rounded=0;orthogonalLoop=1;jettySize=auto;html=1;entryX=0.5;entryY=0;entryDx=0;entryDy=0;" edge="1" parent="1" source="jbCId9T1_YpEdxwAonTa-1" target="jbCId9T1_YpEdxwAonTa-3">
          <mxGeometry relative="1" as="geometry" />
        </mxCell>
        <mxCell id="jbCId9T1_YpEdxwAonTa-1" value="" style="rounded=0;whiteSpace=wrap;html=1;" vertex="1" parent="1">
          <mxGeometry x="354" y="110" width="120" height="40" as="geometry" />
        </mxCell>
        <mxCell id="jbCId9T1_YpEdxwAonTa-6" style="edgeStyle=orthogonalEdgeStyle;rounded=0;orthogonalLoop=1;jettySize=auto;html=1;" edge="1" parent="1" source="jbCId9T1_YpEdxwAonTa-3" target="jbCId9T1_YpEdxwAonTa-5">
          <mxGeometry relative="1" as="geometry" />
        </mxCell>
        <mxCell id="jbCId9T1_YpEdxwAonTa-9" style="edgeStyle=orthogonalEdgeStyle;rounded=0;orthogonalLoop=1;jettySize=auto;html=1;" edge="1" parent="1" source="jbCId9T1_YpEdxwAonTa-3">
          <mxGeometry relative="1" as="geometry">
            <mxPoint x="640" y="360" as="targetPoint" />
          </mxGeometry>
        </mxCell>
        <mxCell id="jbCId9T1_YpEdxwAonTa-3" value="" style="rhombus;whiteSpace=wrap;html=1;" vertex="1" parent="1">
          <mxGeometry x="312" y="320" width="204" height="80" as="geometry" />
        </mxCell>
        <mxCell id="jbCId9T1_YpEdxwAonTa-5" value="" style="ellipse;whiteSpace=wrap;html=1;" vertex="1" parent="1">
          <mxGeometry x="354" y="600" width="120" height="80" as="geometry" />
        </mxCell>
        <mxCell id="jbCId9T1_YpEdxwAonTa-10" value="" style="rounded=1;whiteSpace=wrap;html=1;" vertex="1" parent="1">
          <mxGeometry x="640" y="330" width="120" height="60" as="geometry" />
        </mxCell>
      </root>
    </mxGraphModel>
  </diagram>
</mxfile>
